<?xml version="1.0" encoding="UTF-8"?>
<svg width="20px" height="20px" viewBox="0 0 20 20" version="1.1" xmlns="http://www.w3.org/2000/svg" xmlns:xlink="http://www.w3.org/1999/xlink">
    <!-- Generator: Sketch 48.2 (47327) - http://www.bohemiancoding.com/sketch -->
    <title>call-icon</title>
    <desc>Created with Sketch.</desc>
    <defs></defs>
    <g id="Assets" stroke="none" stroke-width="1" fill="none" fill-rule="evenodd" transform="translate(-85.000000, -3947.000000)" fill-opacity="0.3">
        <g id="Contact-creation" transform="translate(0.000000, 3735.000000)" fill="#000000">
            <path d="M90.39407,219.552833 C90.7955744,219.096752 91.2762739,218.516345 91.6036871,218.068104 C91.8117549,217.783388 91.8654306,217.402568 91.7457448,217.063251 C91.335734,215.901422 90.4741156,213.705595 89.9755526,212.616443 C89.8304326,212.299447 89.5447009,212.085841 89.2197545,212.053099 C88.4721227,211.977654 87.7596224,211.965849 87.3342149,212.129927 C86.8887321,212.30166 85.2405224,213.651087 85.0308384,216.069189 C84.7404282,219.418176 86.5092594,222.538154 89.9940116,226.545482 C93.2211886,230.256659 97.4386864,231.726354 100.184228,231.983954 C101.974496,232.151906 103.933021,230.982145 104.724971,229.379269 C104.921215,228.982031 104.944182,228.218362 104.995136,227.67623 C105.03384,227.265158 104.838958,226.869212 104.503378,226.67313 C103.551166,226.116702 101.696675,225.09783 100.689171,224.553301 C100.3114,224.34901 99.8550286,224.439304 99.5698924,224.777052 C99.0658852,225.373877 98.4560578,226.200724 98.0287788,226.766375 C97.7615913,227.120079 97.3100689,227.243576 96.9235358,227.060683 C94.0617959,225.706737 91.6350759,223.373302 90.2611992,220.784573 C90.0496438,220.38586 90.1011078,219.885601 90.39407,219.552833" id="call-icon"></path>
        </g>
    </g>
</svg>