<?xml version="1.0" encoding="UTF-8"?>
<svg width="24px" height="25px" viewBox="0 0 24 25" version="1.1" xmlns="http://www.w3.org/2000/svg" xmlns:xlink="http://www.w3.org/1999/xlink">
    <!-- Generator: Sketch 48.1 (47250) - http://www.bohemiancoding.com/sketch -->
    <title>Icon contact</title>
    <desc>Created with Sketch.</desc>
    <defs></defs>
    <g id="Create-contact---iPhone-8" stroke="none" stroke-width="1" fill="none" fill-rule="evenodd" transform="translate(-176.000000, -301.000000)" opacity="0.3">
        <g id="New-person" transform="translate(15.000000, 281.000000)" fill="#000000">
            <path d="M176.507626,21.6525605 C177.393466,21.6525605 178.874108,22.8555885 178.874108,24.3892289 C178.874108,25.9396001 178.636168,27.2183684 178.662617,28.1834558 C179.078988,28.0843723 179.561582,28.3685986 179.561582,29.3469105 C179.561582,30.890369 178.685659,32.228948 178.244542,32.228948 C178.07593,32.228948 178.011511,32.1818608 177.932164,32.0760649 C177.852817,32.433026 177.115752,34.3508778 176.216787,35.3159652 L176.216787,37.2263031 C177.274446,37.5303662 180.935827,38.4273274 181.762758,38.5946373 C184.049894,39.0573943 184.135953,40.8553241 184.135953,43.1887456 C181.571103,44.4182225 176.772116,45 172.647276,45 C168.522437,45 164.457208,44.6165899 161.000006,43.254868 C161.000006,41.0866525 160.981271,39.2179917 163.109913,38.6825 C164.810863,38.2546075 168.905847,37.2395276 168.905847,37.2395276 C168.919072,36.8825665 168.905847,35.3225774 168.905847,35.3225774 C167.782066,34.3707146 167.306185,32.5462356 167.213613,32.1232523 C167.164021,32.1925807 167.038689,32.2233376 166.906444,32.2233376 C166.561706,32.2233376 165.547828,31.0374413 165.547828,29.4262574 C165.547828,28.4942313 165.977524,28.0843723 166.460118,28.1834558 C166.26175,27.562105 166.274975,25.6187058 166.274975,24.8387614 C166.274975,21.9962971 168.681131,20 172.329989,20 C174.577451,20 175.939173,20.9783118 176.507626,21.6525605" id="Icon-contact"></path>
        </g>
    </g>
</svg>