<?xml version="1.0" encoding="UTF-8"?>
<svg width="20px" height="20px" viewBox="0 0 20 20" version="1.1" xmlns="http://www.w3.org/2000/svg" xmlns:xlink="http://www.w3.org/1999/xlink">
    <!-- Generator: Sketch 48.2 (47327) - http://www.bohemiancoding.com/sketch -->
    <title>email-icon</title>
    <desc>Created with Sketch.</desc>
    <defs></defs>
    <g id="Assets" stroke="none" stroke-width="1" fill="none" fill-rule="evenodd" transform="translate(-47.000000, -3948.000000)" opacity="0.300000012">
        <g id="Contact-creation" transform="translate(0.000000, 3735.000000)" fill="#000000">
            <path d="M65.5448235,218.021484 C66.4560452,218.566462 66.9383982,219.147095 66.9383982,220.165466 L66.9383982,226.038317 L66.9383982,231.313792 C66.9383982,232.201846 66.2184887,232.921665 65.3304344,232.921665 L57.5542353,232.921665 L57.3888054,232.921665 L48.6079005,232.921665 C47.7199367,232.921665 46.9999367,232.201846 46.9999367,231.313792 L46.9999367,226.038317 L46.9999367,225.993068 L46.9999367,222.916145 L46.9999367,220.339584 C46.9999367,219.294516 47.62419,218.520851 48.6436471,217.900941 C49.6352308,217.297955 55.2004796,213.94809 55.7543258,213.608633 C56.0547783,213.424471 56.5136018,213.090534 57.0138733,213.090534 C57.4738733,213.090534 57.8428326,213.352072 58.0768597,213.492525 C58.3895294,213.680127 64.6980362,217.515059 65.5448235,218.021484 Z M58.1349593,225.105376 C58.4469955,224.914697 66.0496199,220.245828 66.0496199,220.245828 C66.0496199,219.602661 65.647629,219.09343 65.0580362,218.704833 C64.4684434,218.316235 58.1581267,214.532706 57.76419,214.278588 C57.2104344,213.921303 56.8173122,213.974878 56.3215656,214.269629 C55.9284434,214.503385 49.6084434,218.329719 49.1126063,218.651258 C48.6168597,218.972887 48.0138733,219.450805 48.0138733,220.165466 C48.8580362,220.741575 55.4504344,224.813158 55.8570407,225.056235 C56.267991,225.301846 56.6029231,225.552072 57.0317014,225.552072 C57.4917919,225.552072 57.8133303,225.301846 58.1349593,225.105376 Z M65.3691674,231.121484 C65.4534208,230.922661 65.3646425,230.69171 65.1795747,230.580308 L58.5481719,226.587095 C58.3204796,226.449991 58.0167692,226.549086 57.9216561,226.81352 C57.8517919,227.007548 57.9427421,227.223566 58.1193032,227.3299 L64.7519729,231.323837 C64.8212036,231.365466 64.8974027,231.385466 64.9727873,231.385466 C65.1374027,231.385466 65.2974932,231.290534 65.3691674,231.121484 Z M55.8191222,227.3299 C55.9956833,227.223566 56.0866335,227.007548 56.0167692,226.81352 C55.9215656,226.549086 55.6179457,226.449991 55.3901629,226.587095 L48.7588507,230.580308 C48.5737828,230.69171 48.4850045,230.922661 48.5692579,231.121484 C48.6409321,231.290534 48.8010226,231.385466 48.965638,231.385466 C49.0409321,231.385466 49.1172217,231.365466 49.1864525,231.323837 L55.8191222,227.3299 Z M57.8298824,218.675158 L57.8899729,218.340679 L58.6360362,218.349276 L58.3187511,219.978688 C58.2844525,220.155973 58.2672579,220.281765 58.2672579,220.356063 C58.2672579,220.53905 58.3330498,220.630452 58.464543,220.630452 C58.6017376,220.630452 58.7331403,220.53905 58.8590226,220.356063 C59.0704253,220.047195 59.1763077,219.684299 59.1763077,219.266923 C59.1763077,218.723846 58.9889774,218.279321 58.6145882,217.933348 C58.2401086,217.587466 57.7583891,217.414615 57.1697014,217.414615 C56.5121448,217.414615 55.9604706,217.640498 55.5145882,218.092081 C55.0686154,218.543756 54.845629,219.101131 54.845629,219.764299 C54.845629,220.24457 54.9727783,220.67914 55.2272579,221.067828 C55.4815566,221.456606 55.8088869,221.719502 56.2091584,221.856787 C56.483638,221.948281 56.803638,221.993982 57.1697014,221.993982 C57.7126878,221.993982 58.2330498,221.905385 58.7304253,221.72819 L58.9019186,222.397059 C58.3987511,222.574163 57.8156742,222.662851 57.1525068,222.662851 C56.2719638,222.662851 55.5601991,222.405566 55.0171222,221.890995 C54.4168507,221.325113 54.1166697,220.610452 54.1166697,219.747104 C54.1166697,218.906742 54.4082534,218.196425 54.9914208,217.616063 C55.5745882,217.035882 56.2863529,216.745656 57.1267149,216.745656 C57.904181,216.745656 58.5503348,216.984389 59.0648145,217.461765 C59.5793846,217.93914 59.8366697,218.54095 59.8366697,219.266923 C59.8366697,219.787195 59.6936833,220.247466 59.4078914,220.647647 C59.1219186,221.047738 58.7960362,221.247828 58.4302443,221.247828 C58.0700633,221.247828 57.8470769,221.090724 57.7613756,220.776244 C57.5097014,221.136335 57.1553122,221.316516 56.6980271,221.316516 C56.3549502,221.316516 56.0676199,221.187828 55.8361267,220.930543 C55.604543,220.673348 55.4887964,220.353258 55.4887964,219.97009 C55.4887964,219.512805 55.6388416,219.112534 55.9390226,218.769457 C56.2391131,218.426561 56.5892489,218.254977 56.9895204,218.254977 C57.3725068,218.254977 57.6526878,218.395068 57.8298824,218.675158 Z M57.6412851,219.635611 L57.6412851,219.601403 C57.6412851,219.435611 57.5884344,219.299955 57.4826425,219.193982 C57.3768507,219.088281 57.2468054,219.035339 57.0924163,219.035339 C56.8923258,219.035339 56.7164887,219.124027 56.5649955,219.301131 C56.4135023,219.478507 56.3377557,219.69009 56.3377557,219.935701 C56.3377557,220.118869 56.3906063,220.267376 56.4963982,220.381674 C56.60219,220.496154 56.7378462,220.553258 56.903819,220.553258 C57.1039095,220.553258 57.2768507,220.461855 57.422552,220.278778 C57.5683439,220.095882 57.6412851,219.881493 57.6412851,219.635611 Z" id="email-icon"></path>
        </g>
    </g>
</svg>