<?xml version="1.0" encoding="utf-8"?>
<!-- Generator: Adobe Illustrator 18.1.1, SVG Export Plug-In . SVG Version: 6.00 Build 0)  -->
<svg version="1.1" id="Layer_1" xmlns="http://www.w3.org/2000/svg" xmlns:xlink="http://www.w3.org/1999/xlink" x="0px" y="0px"
	 viewBox="0 0 300 300" enable-background="new 0 0 300 300" xml:space="preserve">
<circle fill="#FFFFFF" cx="150" cy="150.4" r="143.8"/>
<path display="none" fill="#FFFFFF" d="M54.9,249.6c0,0-19.2,30.9-44,40.4s56,2.3,75.3-17.4L54.9,249.6z"/>
<path display="none" fill="#A29E99" d="M191.1,84c-11-7.9-24.8-11.9-41.4-11.9c-12.6,0-23.4,2.8-32,8.4c-13.8,8.8-21.1,23.6-22,44.5
	h31.9c0-6.1,1.8-12,5.4-17.6c3.5-5.6,9.6-8.5,18.1-8.5c8.6,0,14.6,2.3,17.9,6.9c3.3,4.6,4.9,9.6,4.9,15.3c0,4.9-2.4,9.3-5.4,13.4
	c-1.6,2.4-3.8,4.5-6.4,6.5c0,0-17.3,11.1-24.9,20c-4.4,5.1-4.8,12.9-5.2,24c0,0.8,0.2,2.4,3,2.4h24.8c2.5,0,3-1.9,3-2.6
	c0.1-4,0.6-6.1,1.4-8.5c1.4-4.4,5.3-8.3,9.4-11.6l8.8-6.1c7.9-6.1,14.2-11.3,17-15.3c4.8-6.5,8.1-14.6,8.1-24.1
	C207.6,103.8,202.1,92,191.1,84L191.1,84z"/>
<path display="none" fill="#A29E99" d="M149.6,202.3c-9.1-0.3-16.8,6-17,16c-0.3,9.9,6.9,16.5,16,16.8c9.5,0.3,16.9-5.9,17.1-15.8
	C166.1,209.3,159.1,202.5,149.6,202.3L149.6,202.3z"/>
<g>
	<g>
		<g>
			<path fill="#A29E99" d="M151,236c-44.4,0-80.6-35-80.6-78.1c0-30.1,17.3-57,45.3-70.3c3.5-1.6,7.7-0.2,9.3,3.3
				c1.6,3.5,0.2,7.7-3.3,9.3c-23,10.9-37.3,32.9-37.3,57.6c0,35.3,29.9,64.1,66.5,64.1s66.5-28.8,66.5-64.1
				c0-24.8-15.1-47.6-38.5-58.1c-3.5-1.6-5.1-5.7-3.5-9.3c1.6-3.5,5.7-5.1,9.3-3.5c28.4,12.7,46.8,40.6,46.8,70.9
				C231.6,201,195.4,236,151,236L151,236z"/>
			<path fill="#A29E99" d="M151,162.9c-3.9,0-7-3.1-7-7V75c0-3.9,3.2-7,7-7c3.9,0,7,3.1,7,7v80.9C158,159.8,154.9,162.9,151,162.9z"
				/>
		</g>
	</g>
</g>
</svg>
