<?xml version="1.0" encoding="utf-8"?>
<!-- Generator: Adobe Illustrator 18.1.1, SVG Export Plug-In . SVG Version: 6.00 Build 0)  -->
<svg version="1.1" id="Layer_1" xmlns="http://www.w3.org/2000/svg" xmlns:xlink="http://www.w3.org/1999/xlink" x="0px" y="0px"
	 viewBox="0 0 240 240" enable-background="new 0 0 240 240" xml:space="preserve">
<circle fill="#FFFFFF" cx="120" cy="120.3" r="115"/>
<path fill="#FFFFFF" d="M43.9,199.7c0,0-15.4,24.7-35.2,32.3s44.8,1.8,60.2-13.9L43.9,199.7z"/>
<path fill="#A29E99" d="M152.9,67.2c-8.8-6.3-19.8-9.5-33.1-9.5c-10.1,0-18.7,2.2-25.6,6.7c-11,7-16.9,18.9-17.6,35.6h25.5
	c0-4.9,1.4-9.6,4.3-14.1c2.8-4.5,7.7-6.8,14.5-6.8c6.9,0,11.7,1.8,14.3,5.5c2.6,3.7,3.9,7.7,3.9,12.2c0,3.9-1.9,7.4-4.3,10.7
	c-1.3,1.9-3,3.6-5.1,5.2c0,0-13.8,8.9-19.9,16c-3.5,4.1-3.8,10.3-4.2,19.2c0,0.6,0.2,1.9,2.4,1.9h19.8c2,0,2.4-1.5,2.4-2.1
	c0.1-3.2,0.5-4.9,1.1-6.8c1.1-3.5,4.2-6.6,7.5-9.3l7-4.9c6.3-4.9,11.4-9,13.6-12.2c3.8-5.2,6.5-11.7,6.5-19.3
	C166.1,83,161.7,73.6,152.9,67.2L152.9,67.2z"/>
<path fill="#A29E99" d="M119.7,161.8c-7.3-0.2-13.4,4.8-13.6,12.8c-0.2,7.9,5.5,13.2,12.8,13.4c7.6,0.2,13.5-4.7,13.7-12.6
	C132.9,167.4,127.3,162,119.7,161.8L119.7,161.8z"/>
</svg>
