<?xml version="1.0" encoding="UTF-8"?>
<svg width="14px" height="14px" viewBox="0 0 14 14" version="1.1" xmlns="http://www.w3.org/2000/svg" xmlns:xlink="http://www.w3.org/1999/xlink">
    <!-- Generator: Sketch 48.2 (47327) - http://www.bohemiancoding.com/sketch -->
    <title>task-status—canceled</title>
    <desc>Created with Sketch.</desc>
    <defs></defs>
    <g id="Assets" stroke="none" stroke-width="1" fill="none" fill-rule="evenodd" transform="translate(-31.000000, -2696.000000)" opacity="0.200000003">
        <g id="Contact-open" transform="translate(0.000000, 1725.000000)" fill="#000000">
            <g id="History---tasks" transform="translate(27.000000, 688.000000)">
                <path d="M17.8250002,285.521611 L15.4783894,283.175 C15.2450562,282.941667 14.8667385,282.941667 14.6333558,283.175 L11.0000186,286.808387 L7.36668138,283.175 C7.13334826,282.941667 6.75498093,282.941667 6.5216478,283.175 L4.17503701,285.521611 C3.94165433,285.754944 3.94165433,286.133311 4.17503701,286.366644 L7.80842376,289.999981 L4.17503701,293.633319 C3.94165433,293.866652 3.94165433,294.245019 4.17503701,294.478352 L6.5216478,296.824913 C6.75498093,297.058296 7.13334826,297.058296 7.36668138,296.824913 L11.0000186,293.191576 L14.6333558,296.824913 C14.8667385,297.058296 15.2450562,297.058296 15.4783894,296.824913 L17.8250002,294.478352 C18.0583333,294.245019 18.0583333,293.866652 17.8250002,293.633319 L14.1916134,289.999981 L17.8250002,286.366644 C18.0583333,286.133311 18.0583333,285.754944 17.8250002,285.521611" id="task-status—canceled"></path>
            </g>
        </g>
    </g>
</svg>