<?xml version="1.0" encoding="utf-8"?>
<!-- Generator: Adobe Illustrator 18.1.1, SVG Export Plug-In . SVG Version: 6.00 Build 0)  -->
<svg version="1.1" id="Layer_1" xmlns="http://www.w3.org/2000/svg" xmlns:xlink="http://www.w3.org/1999/xlink" x="0px" y="0px"
	 viewBox="0 0 157 173" enable-background="new 0 0 157 173" xml:space="preserve">
<g>
	<path fill="none" d="M118.7,143.6c-0.3-0.3-0.5-0.5-0.9-0.7c-0.9-0.6-2-1-3.2-1c-3.2,0-5.8,2.6-5.8,5.8c0,1.5,0,6.2,0,7.7
		c0,3.2,2.6,5.8,5.8,5.8c1.2,0,2.3-0.4,3.2-1c0.3-0.2,0.6-0.4,0.9-0.7c0.3-0.3,0.5-0.5,0.7-0.9c0.6-0.9,1-2,1-3.2c0-1.5,0-6.2,0-7.7
		c0-1.2-0.4-2.3-1-3.2C119.2,144.2,118.9,143.9,118.7,143.6z"/>
	<path fill="none" d="M81.1,12.1l-2.8,5.5l6.9,0.7l-1.6-6C83.3,11.2,81.7,11,81.1,12.1z"/>
	<path d="M74.2,131.7h-4c0.2,1,0.3,2.1,0.4,3.1c0.2,5.3-1.7,10.3-5.3,14.1v21.3c0,0.7,0.6,1.3,1.3,1.3h7.7c0.7,0,1.3-0.6,1.3-1.3
		v-37.2C75.5,132.2,74.9,131.7,74.2,131.7z"/>
	<path d="M96.7,161.2h-2c-1.4,0-2.5-1.1-2.5-2.5v-38.6c0-0.7-0.6-1.3-1.3-1.3h-7.7c-0.7,0-1.3,0.6-1.3,1.3v41
		c0,5.7,4.6,10.3,10.3,10.3h12.6C101,169.1,98.1,165.5,96.7,161.2z"/>
	<path d="M71.7,113.8c-4.2-0.8-8.2,2-8.9,6.2c0,0,0,0.1,0,0.1c0.4,0.3,0.9,0.7,1.3,1.1c0-0.3,0-0.6,0.1-0.9c0.6-3.5,3.9-5.8,7.4-5.1
		c3.3,0.7,5.5,3.8,5,7.1c-0.6,3.5-3.9,5.8-7.4,5.1c-0.1,0-0.3-0.1-0.4-0.1c0.2,0.5,0.5,1,0.6,1.5c4,0.5,7.8-2.2,8.5-6.3
		C78.5,118.5,75.8,114.5,71.7,113.8z"/>
	<path d="M66.8,130.1c-1.9-5.2-6.4-9.2-11.7-10.7c-1.4-0.4-2.9-0.6-4.4-0.6H30.5c-0.6,0-1.1,0.4-1.3,1c0,0.1,0,0.2,0,0.3v31.8
		c0,4-2.6,7.8-6.5,8.9c-3.4,1-7.3-0.2-9.5-3c-1.3-1.6-2-3.6-2-5.6v-32.1c0-0.9-0.8-1.3-1.6-1.3c-0.7,0-1.3,0-2,0c-1.6,0-3.3,0-4.9,0
		c-0.2,0-0.3,0-0.5,0c-0.7,0-1.3,0.6-1.3,1.3v32.1c0,3.8,1.2,7.6,3.3,10.8c2.2,3.3,5.5,5.8,9.2,7.2c3.8,1.4,8,1.6,11.9,0.5
		c3.8-1.1,7.2-3.3,9.7-6.4c2.8-3.4,4.3-7.7,4.3-12.2v-23.1v0h11.3h0c1.2,0,2.4,0.3,3.4,0.9c1.5,0.9,2.7,2.4,3.1,4.1
		c0.4,1.7,0.1,3.4-0.9,4.9c-1.1,1.8-3.1,2.9-5.4,2.9h0h-9v10.3h9c3.9,0,7.7-1.4,10.6-3.8c3.3-2.8,5.5-6.8,6-11.1
		C67.9,134.9,67.6,132.4,66.8,130.1z"/>
	<path d="M153.7,141.9c0.7,0,1.3-0.6,1.3-1.3v-7.7c0-0.7-0.6-1.3-1.3-1.3h-6.4v-11.5c0-0.7-0.6-1.3-1.3-1.3h-7.7
		c-0.7,0-1.3,0.6-1.3,1.3v11.5h-12.6c3.8,2.3,6.7,6,8.1,10.3h4.5v19.2c0,5.7,4.6,10.3,10.3,10.3h6.4c0.7,0,1.3-0.6,1.3-1.3v-7.7
		c0-0.7-0.6-1.3-1.3-1.3h-3.8c-1.4,0-2.6-1.1-2.6-2.6v-16.7H153.7z"/>
	<path d="M114.6,131.7c-8.9,0-16,7.2-16,16v7.7c0,3.6,1.2,6.9,3.2,9.6c1.7,2.3,4,4.1,6.6,5.2c1.4,0.6,2.8,1,4.3,1.1
		c0.6,0.1,1.3,0.1,1.9,0.1c2.2,0,4.3-0.4,6.2-1.3c2.6-1.1,4.9-2.9,6.6-5.2c2-2.7,3.2-6,3.2-9.6v-7.7
		C130.6,138.8,123.4,131.7,114.6,131.7z M120.4,155.4c0,1.2-0.4,2.3-1,3.2c-0.2,0.3-0.4,0.6-0.7,0.9c-0.3,0.3-0.5,0.5-0.9,0.7
		c-0.9,0.6-2,1-3.2,1c-3.2,0-5.8-2.6-5.8-5.8c0-1.5,0-6.2,0-7.7c0-3.2,2.6-5.8,5.8-5.8c1.2,0,2.3,0.4,3.2,1c0.3,0.2,0.6,0.4,0.9,0.7
		c0.3,0.3,0.5,0.5,0.7,0.9c0.6,0.9,1,2,1,3.2C120.4,149.2,120.4,153.9,120.4,155.4z"/>
	<path d="M64.8,120.4c-0.1,0.5-0.1,1,0,1.4c1.4,1.4,2.6,2.9,3.5,4.6c0.3,0.1,0.6,0.2,1,0.3c3.1,0.6,6.1-1.5,6.6-4.6
		c0.5-2.9-1.5-5.7-4.4-6.3l0.3,1.5l-1.4-0.3l0.8-1.3C68.1,115.3,65.3,117.4,64.8,120.4z"/>
	<path d="M105.6,48.6H93.4l-6.8,6.5l29.1,3.1c0.7-2.2,1.1-4.6,1.4-7C119.3,30,103.9,11,82.7,8.7C61.5,6.5,42.5,21.9,40.3,43.1
		c-0.3,2.4-0.3,4.8-0.1,7.1l29,3l-4.9-4.7H51.7c-1.2,0-2.1-1-2-2.2c0.1-1,1-1.8,2.1-1.8h14c0,0,0.1,0,0.1,0l6,5.7l6-5.6
		c0.5-0.5,1.3-0.5,1.8,0l6.1,5.6l6-5.7c0,0,0.1,0,0.1,0h13.9c1.2,0,2.1,1,2,2.2C107.6,47.8,106.7,48.6,105.6,48.6z M78.4,17.7
		l2.8-5.5c0.6-1.1,2.2-0.9,2.5,0.3l1.6,6L78.4,17.7z"/>
	<polygon points="74.1,53.8 84.8,54.9 78.8,49.3 	"/>
	<path d="M124.2,47.2c0-24.1-18.9-43.8-42.7-45.3l-1.5,4c22.2,0.7,40,18.9,40,41.3c0,22.8-18.5,41.3-41.3,41.3S37.4,70,37.4,47.2
		c0-22.3,17.7-40.5,39.8-41.2l-1.5-4C52,3.4,33.2,23.1,33.2,47.2c0,25.1,20.4,45.4,45.5,45.4S124.2,72.2,124.2,47.2z"/>
</g>
<g id="Font_2_">
	<g>
		<g>
			<linearGradient id="SVGID_1_" gradientUnits="userSpaceOnUse" x1="20.4852" y1="101.7159" x2="122.9434" y2="204.1741">
				<stop  offset="0" style="stop-color:#F7F5F5"/>
				<stop  offset="3.993154e-003" style="stop-color:#F6F4F4"/>
				<stop  offset="0.1909" style="stop-color:#DDD8D5"/>
				<stop  offset="0.3615" style="stop-color:#D0C8C5"/>
				<stop  offset="0.5" style="stop-color:#CCC2C0"/>
				<stop  offset="0.6445" style="stop-color:#CFC7C4"/>
				<stop  offset="0.7897" style="stop-color:#DAD3D1"/>
				<stop  offset="0.9347" style="stop-color:#EDE9E8"/>
				<stop  offset="0.9622" style="stop-color:#F1EFED"/>
			</linearGradient>
			<path fill="url(#SVGID_1_)" d="M65.2,148.9v21.3c0,0.7,0.6,1.3,1.3,1.3h7.7c0.7,0,1.3-0.6,1.3-1.3v-37.2c0-0.7-0.6-1.3-1.3-1.3
				h-4c0.2,1,0.3,2.1,0.4,3.1C70.7,140.1,68.8,145.1,65.2,148.9z"/>
			<linearGradient id="SVGID_2_" gradientUnits="userSpaceOnUse" x1="33.3517" y1="88.8495" x2="135.8098" y2="191.3076">
				<stop  offset="0" style="stop-color:#F7F5F5"/>
				<stop  offset="3.993154e-003" style="stop-color:#F6F4F4"/>
				<stop  offset="0.1909" style="stop-color:#DDD8D5"/>
				<stop  offset="0.3615" style="stop-color:#D0C8C5"/>
				<stop  offset="0.5" style="stop-color:#CCC2C0"/>
				<stop  offset="0.6445" style="stop-color:#CFC7C4"/>
				<stop  offset="0.7897" style="stop-color:#DAD3D1"/>
				<stop  offset="0.9347" style="stop-color:#EDE9E8"/>
				<stop  offset="0.9622" style="stop-color:#F1EFED"/>
			</linearGradient>
			<path fill="url(#SVGID_2_)" d="M96.7,161.2h-2c-1.4,0-2.5-1.1-2.5-2.5v-38.6c0-0.7-0.6-1.3-1.3-1.3h-7.7c-0.7,0-1.3,0.6-1.3,1.3
				v41c0,5.7,4.6,10.3,10.3,10.3h12.6C101,169.1,98.1,165.5,96.7,161.2z"/>
			<linearGradient id="SVGID_3_" gradientUnits="userSpaceOnUse" x1="36.175" y1="86.0261" x2="138.6332" y2="188.4843">
				<stop  offset="0" style="stop-color:#F7F5F5"/>
				<stop  offset="3.993154e-003" style="stop-color:#F6F4F4"/>
				<stop  offset="0.1909" style="stop-color:#DDD8D5"/>
				<stop  offset="0.3615" style="stop-color:#D0C8C5"/>
				<stop  offset="0.5" style="stop-color:#CCC2C0"/>
				<stop  offset="0.6445" style="stop-color:#CFC7C4"/>
				<stop  offset="0.7897" style="stop-color:#DAD3D1"/>
				<stop  offset="0.9347" style="stop-color:#EDE9E8"/>
				<stop  offset="0.9622" style="stop-color:#F1EFED"/>
			</linearGradient>
			<path fill="url(#SVGID_3_)" d="M71.7,113.8c-4.2-0.8-8.2,2-8.9,6.2c0,0,0,0.1,0,0.1c0.4,0.3,0.9,0.7,1.3,1.1c0-0.3,0-0.6,0.1-0.9
				c0.6-3.5,3.9-5.8,7.4-5.1c3.3,0.7,5.5,3.8,5,7.1c-0.6,3.5-3.9,5.8-7.4,5.1c-0.1,0-0.3-0.1-0.4-0.1c0.2,0.5,0.5,1,0.6,1.5
				c4,0.5,7.8-2.2,8.5-6.3C78.5,118.5,75.8,114.5,71.7,113.8z"/>
			<linearGradient id="SVGID_4_" gradientUnits="userSpaceOnUse" x1="6.072" y1="116.1291" x2="108.5302" y2="218.5873">
				<stop  offset="0" style="stop-color:#F7F5F5"/>
				<stop  offset="3.993154e-003" style="stop-color:#F6F4F4"/>
				<stop  offset="0.1909" style="stop-color:#DDD8D5"/>
				<stop  offset="0.3615" style="stop-color:#D0C8C5"/>
				<stop  offset="0.5" style="stop-color:#CCC2C0"/>
				<stop  offset="0.6445" style="stop-color:#CFC7C4"/>
				<stop  offset="0.7897" style="stop-color:#DAD3D1"/>
				<stop  offset="0.9347" style="stop-color:#EDE9E8"/>
				<stop  offset="0.9622" style="stop-color:#F1EFED"/>
			</linearGradient>
			<path fill="url(#SVGID_4_)" d="M66.8,130.1c-1.9-5.2-6.4-9.2-11.7-10.7c-1.4-0.4-2.9-0.6-4.4-0.6H30.5c-0.6,0-1.1,0.4-1.3,1
				c0,0.1,0,0.2,0,0.3v31.8c0,4-2.6,7.8-6.5,8.9c-3.4,1-7.3-0.2-9.5-3c-1.3-1.6-2-3.6-2-5.6v-32.1c0-0.9-0.8-1.3-1.6-1.3
				c-0.7,0-1.3,0-2,0c-1.6,0-3.3,0-4.9,0c-0.2,0-0.3,0-0.5,0c-0.7,0-1.3,0.6-1.3,1.3v32.1c0,3.8,1.2,7.6,3.3,10.8
				c2.2,3.3,5.5,5.8,9.2,7.2c3.8,1.4,8,1.6,11.9,0.5c3.8-1.1,7.2-3.3,9.7-6.4c2.8-3.4,4.3-7.7,4.3-12.2v-23.1v0h11.3h0
				c1.2,0,2.4,0.3,3.4,0.9c1.5,0.9,2.7,2.4,3.1,4.1c0.4,1.7,0.1,3.4-0.9,4.9c-1.1,1.8-3.1,2.9-5.4,2.9h0h-9v10.3h9
				c3.9,0,7.7-1.4,10.6-3.8c3.3-2.8,5.5-6.8,6-11.1C67.9,134.9,67.6,132.4,66.8,130.1z"/>
			<linearGradient id="SVGID_5_" gradientUnits="userSpaceOnUse" x1="60.9476" y1="61.2535" x2="163.4058" y2="163.7117">
				<stop  offset="0" style="stop-color:#F7F5F5"/>
				<stop  offset="3.993154e-003" style="stop-color:#F6F4F4"/>
				<stop  offset="0.1909" style="stop-color:#DDD8D5"/>
				<stop  offset="0.3615" style="stop-color:#D0C8C5"/>
				<stop  offset="0.5" style="stop-color:#CCC2C0"/>
				<stop  offset="0.6445" style="stop-color:#CFC7C4"/>
				<stop  offset="0.7897" style="stop-color:#DAD3D1"/>
				<stop  offset="0.9347" style="stop-color:#EDE9E8"/>
				<stop  offset="0.9622" style="stop-color:#F1EFED"/>
			</linearGradient>
			<path fill="url(#SVGID_5_)" d="M153.7,141.9c0.7,0,1.3-0.6,1.3-1.3v-7.7c0-0.7-0.6-1.3-1.3-1.3h-6.4v-11.5c0-0.7-0.6-1.3-1.3-1.3
				h-7.7c-0.7,0-1.3,0.6-1.3,1.3v11.5h-12.6c3.8,2.3,6.7,6,8.1,10.3h4.5v19.2c0,5.7,4.6,10.3,10.3,10.3h6.4c0.7,0,1.3-0.6,1.3-1.3
				v-7.7c0-0.7-0.6-1.3-1.3-1.3h-3.8c-1.4,0-2.6-1.1-2.6-2.6v-16.7H153.7z"/>
			<linearGradient id="SVGID_6_" gradientUnits="userSpaceOnUse" x1="42.6206" y1="79.5805" x2="145.0788" y2="182.0387">
				<stop  offset="0" style="stop-color:#F7F5F5"/>
				<stop  offset="3.993154e-003" style="stop-color:#F6F4F4"/>
				<stop  offset="0.1909" style="stop-color:#DDD8D5"/>
				<stop  offset="0.3615" style="stop-color:#D0C8C5"/>
				<stop  offset="0.5" style="stop-color:#CCC2C0"/>
				<stop  offset="0.6445" style="stop-color:#CFC7C4"/>
				<stop  offset="0.7897" style="stop-color:#DAD3D1"/>
				<stop  offset="0.9347" style="stop-color:#EDE9E8"/>
				<stop  offset="0.9622" style="stop-color:#F1EFED"/>
			</linearGradient>
			<path fill="url(#SVGID_6_)" d="M114.6,131.7c-8.9,0-16,7.2-16,16v7.7c0,3.6,1.2,6.9,3.2,9.6c1.7,2.3,4,4.1,6.6,5.2
				c1.4,0.6,2.8,1,4.3,1.1c0.6,0.1,1.3,0.1,1.9,0.1c2.2,0,4.3-0.4,6.2-1.3c2.6-1.1,4.9-2.9,6.6-5.2c2-2.7,3.2-6,3.2-9.6v-7.7
				C130.6,138.8,123.4,131.7,114.6,131.7z M120.4,155.4c0,1.2-0.4,2.3-1,3.2c-0.2,0.3-0.4,0.6-0.7,0.9c-0.3,0.3-0.5,0.5-0.9,0.7
				c-0.9,0.6-2,1-3.2,1c-3.2,0-5.8-2.6-5.8-5.8c0-1.5,0-6.2,0-7.7c0-3.2,2.6-5.8,5.8-5.8c1.2,0,2.3,0.4,3.2,1
				c0.3,0.2,0.6,0.4,0.9,0.7c0.3,0.3,0.5,0.5,0.7,0.9c0.6,0.9,1,2,1,3.2C120.4,149.2,120.4,153.9,120.4,155.4z"/>
		</g>
	</g>
	<defs>
		<filter id="Adobe_OpacityMaskFilter" filterUnits="userSpaceOnUse" x="1" y="113.6" width="154" height="57.8">
			
				<feColorMatrix  type="matrix" values="-1 0 0 0 1  0 -1 0 0 1  0 0 -1 0 1  0 0 0 1 0" color-interpolation-filters="sRGB" result="source"/>
		</filter>
	</defs>
	<mask maskUnits="userSpaceOnUse" x="1" y="113.6" width="154" height="57.8" id="SVGID_7_">
		<g filter="url(#Adobe_OpacityMaskFilter)">
			
				<image overflow="visible" width="659" height="258" xlink:href="D0A3CC0C.jpg"  transform="matrix(0.24 0 0 0.24 -0.9757 111.6468)">
			</image>
		</g>
	</mask>
	<g opacity="0.5" mask="url(#SVGID_7_)">
		<g>
			<path fill="#FFFFFF" d="M65.2,148.9v21.3c0,0.7,0.6,1.3,1.3,1.3h7.7c0.7,0,1.3-0.6,1.3-1.3v-37.2c0-0.7-0.6-1.3-1.3-1.3h-4
				c0.2,1,0.3,2.1,0.4,3.1C70.7,140.1,68.8,145.1,65.2,148.9z"/>
			<path fill="#FFFFFF" d="M96.7,161.2h-2c-1.4,0-2.5-1.1-2.5-2.5v-38.6c0-0.7-0.6-1.3-1.3-1.3h-7.7c-0.7,0-1.3,0.6-1.3,1.3v41
				c0,5.7,4.6,10.3,10.3,10.3h12.6C101,169.1,98.1,165.5,96.7,161.2z"/>
			<path fill="#FFFFFF" d="M71.7,113.8c-4.2-0.8-8.2,2-8.9,6.2c0,0,0,0.1,0,0.1c0.4,0.3,0.9,0.7,1.3,1.1c0-0.3,0-0.6,0.1-0.9
				c0.6-3.5,3.9-5.8,7.4-5.1c3.3,0.7,5.5,3.8,5,7.1c-0.6,3.5-3.9,5.8-7.4,5.1c-0.1,0-0.3-0.1-0.4-0.1c0.2,0.5,0.5,1,0.6,1.5
				c4,0.5,7.8-2.2,8.5-6.3C78.5,118.5,75.8,114.5,71.7,113.8z"/>
			<path fill="#FFFFFF" d="M66.8,130.1c-1.9-5.2-6.4-9.2-11.7-10.7c-1.4-0.4-2.9-0.6-4.4-0.6H30.5c-0.6,0-1.1,0.4-1.3,1
				c0,0.1,0,0.2,0,0.3v31.8c0,4-2.6,7.8-6.5,8.9c-3.4,1-7.3-0.2-9.5-3c-1.3-1.6-2-3.6-2-5.6v-32.1c0-0.9-0.8-1.3-1.6-1.3
				c-0.7,0-1.3,0-2,0c-1.6,0-3.3,0-4.9,0c-0.2,0-0.3,0-0.5,0c-0.7,0-1.3,0.6-1.3,1.3v32.1c0,3.8,1.2,7.6,3.3,10.8
				c2.2,3.3,5.5,5.8,9.2,7.2c3.8,1.4,8,1.6,11.9,0.5c3.8-1.1,7.2-3.3,9.7-6.4c2.8-3.4,4.3-7.7,4.3-12.2v-23.1v0h11.3h0
				c1.2,0,2.4,0.3,3.4,0.9c1.5,0.9,2.7,2.4,3.1,4.1c0.4,1.7,0.1,3.4-0.9,4.9c-1.1,1.8-3.1,2.9-5.4,2.9h0h-9v10.3h9
				c3.9,0,7.7-1.4,10.6-3.8c3.3-2.8,5.5-6.8,6-11.1C67.9,134.9,67.6,132.4,66.8,130.1z"/>
			<path fill="#FFFFFF" d="M153.7,141.9c0.7,0,1.3-0.6,1.3-1.3v-7.7c0-0.7-0.6-1.3-1.3-1.3h-6.4v-11.5c0-0.7-0.6-1.3-1.3-1.3h-7.7
				c-0.7,0-1.3,0.6-1.3,1.3v11.5h-12.6c3.8,2.3,6.7,6,8.1,10.3h4.5v19.2c0,5.7,4.6,10.3,10.3,10.3h6.4c0.7,0,1.3-0.6,1.3-1.3v-7.7
				c0-0.7-0.6-1.3-1.3-1.3h-3.8c-1.4,0-2.6-1.1-2.6-2.6v-16.7H153.7z"/>
			<path fill="#FFFFFF" d="M114.6,131.7c-8.9,0-16,7.2-16,16v7.7c0,3.6,1.2,6.9,3.2,9.6c1.7,2.3,4,4.1,6.6,5.2
				c1.4,0.6,2.8,1,4.3,1.1c0.6,0.1,1.3,0.1,1.9,0.1c2.2,0,4.3-0.4,6.2-1.3c2.6-1.1,4.9-2.9,6.6-5.2c2-2.7,3.2-6,3.2-9.6v-7.7
				C130.6,138.8,123.4,131.7,114.6,131.7z M120.4,155.4c0,1.2-0.4,2.3-1,3.2c-0.2,0.3-0.4,0.6-0.7,0.9c-0.3,0.3-0.5,0.5-0.9,0.7
				c-0.9,0.6-2,1-3.2,1c-3.2,0-5.8-2.6-5.8-5.8c0-1.5,0-6.2,0-7.7c0-3.2,2.6-5.8,5.8-5.8c1.2,0,2.3,0.4,3.2,1
				c0.3,0.2,0.6,0.4,0.9,0.7c0.3,0.3,0.5,0.5,0.7,0.9c0.6,0.9,1,2,1,3.2C120.4,149.2,120.4,153.9,120.4,155.4z"/>
		</g>
	</g>
</g>
<radialGradient id="Inner_dot_1_" cx="51.8016" cy="-31.4256" r="5.562" gradientTransform="matrix(0.9842 0.1771 -0.1771 0.9842 13.7593 143.0328)" gradientUnits="userSpaceOnUse">
	<stop  offset="0" style="stop-color:#57C8DE"/>
	<stop  offset="1" style="stop-color:#089CD7"/>
</radialGradient>
<path id="Inner_dot_2_" fill="url(#Inner_dot_1_)" d="M75.8,122.2c0.5-2.9-1.5-5.7-4.4-6.3l0.3,1.5l-1.4-0.3l0.8-1.3
	c-3-0.5-5.8,1.6-6.3,4.6c-0.1,0.5-0.1,1,0,1.4c1.4,1.4,2.6,2.9,3.5,4.6c0.3,0.1,0.6,0.2,1,0.3C72.3,127.3,75.3,125.3,75.8,122.2z"/>
<g id="Inside_stroke_2_">
	
		<linearGradient id="SVGID_8_" gradientUnits="userSpaceOnUse" x1="86.2157" y1="58.1461" x2="81.0262" y2="8.7716" gradientTransform="matrix(0.9945 0.1045 -0.1045 0.9945 -0.9687 -8.6663)">
		<stop  offset="0" style="stop-color:#57C8DE"/>
		<stop  offset="1" style="stop-color:#089CD7"/>
	</linearGradient>
	<path fill="url(#SVGID_8_)" d="M40.3,43.1c-0.3,2.4-0.3,4.8-0.1,7.1l29,3l-4.9-4.7H51.7c-1.2,0-2.1-1-2-2.2c0.1-1,1-1.8,2.1-1.8h14
		c0,0,0.1,0,0.1,0l6,5.7l6-5.6c0.5-0.5,1.3-0.5,1.8,0l6.1,5.6l6-5.7c0,0,0.1,0,0.1,0h13.9c1.2,0,2.1,1,2,2.2c-0.1,1-1,1.8-2.1,1.8
		H93.4l-6.8,6.5l29.1,3.1c0.7-2.2,1.1-4.6,1.4-7C119.3,30,103.9,11,82.7,8.7C61.5,6.5,42.5,21.9,40.3,43.1z M83.6,12.4l1.6,6
		l-6.9-0.7l2.8-5.5C81.7,11,83.3,11.2,83.6,12.4z"/>
	
		<linearGradient id="SVGID_9_" gradientUnits="userSpaceOnUse" x1="86.9397" y1="58.07" x2="81.7502" y2="8.6955" gradientTransform="matrix(0.9945 0.1045 -0.1045 0.9945 -0.9687 -8.6663)">
		<stop  offset="0" style="stop-color:#57C8DE"/>
		<stop  offset="1" style="stop-color:#089CD7"/>
	</linearGradient>
	<polygon fill="url(#SVGID_9_)" points="74.1,53.8 84.8,54.9 78.8,49.3 	"/>
</g>
<g id="Circle_stroke_3_">
	<g>
		<linearGradient id="SVGID_10_" gradientUnits="userSpaceOnUse" x1="46.5673" y1="79.2981" x2="110.8264" y2="15.039">
			<stop  offset="0" style="stop-color:#CCC2C0"/>
			<stop  offset="0.5" style="stop-color:#F7F5F5"/>
			<stop  offset="1" style="stop-color:#CAC3CA"/>
		</linearGradient>
		<path fill="url(#SVGID_10_)" d="M81.5,1.9l-1.5,4c22.2,0.7,40,18.9,40,41.3c0,22.8-18.5,41.3-41.3,41.3S37.4,70,37.4,47.2
			c0-22.3,17.7-40.5,39.8-41.2l-1.5-4C52,3.4,33.2,23.1,33.2,47.2c0,25.1,20.4,45.4,45.5,45.4c25.1,0,45.5-20.3,45.5-45.4
			C124.2,23,105.3,3.3,81.5,1.9z"/>
	</g>
	<defs>
		<filter id="Adobe_OpacityMaskFilter_1_" filterUnits="userSpaceOnUse" x="33.2" y="1.9" width="91" height="90.6">
			
				<feColorMatrix  type="matrix" values="-1 0 0 0 1  0 -1 0 0 1  0 0 -1 0 1  0 0 0 1 0" color-interpolation-filters="sRGB" result="source"/>
		</filter>
	</defs>
	<mask maskUnits="userSpaceOnUse" x="33.2" y="1.9" width="91" height="90.6" id="SVGID_11_">
		<g filter="url(#Adobe_OpacityMaskFilter_1_)">
			
				<image overflow="visible" width="396" height="395" xlink:href="D0A3CC0D.jpg"  transform="matrix(0.24 0 0 0.24 31.1822 -0.1086)">
			</image>
		</g>
	</mask>
	<g opacity="0.5" mask="url(#SVGID_11_)">
		<path fill="#FFFFFF" d="M81.5,1.9l-1.5,4c22.2,0.7,40,18.9,40,41.3c0,22.8-18.5,41.3-41.3,41.3S37.4,70,37.4,47.2
			c0-22.3,17.7-40.5,39.8-41.2l-1.5-4C52,3.4,33.2,23.1,33.2,47.2c0,25.1,20.4,45.4,45.5,45.4c25.1,0,45.5-20.3,45.5-45.4
			C124.2,23,105.3,3.3,81.5,1.9z"/>
	</g>
</g>
</svg>
